<svg width="283.938916015625px" height="122px" xmlns="http://www.w3.org/2000/svg" viewBox="108.0305419921875 14 283.938916015625 122" style="background: rgba(0, 0, 0, 0);" preserveAspectRatio="xMidYMid"><defs><filter id="editing-hole" x="-100%" y="-100%" width="300%" height="300%"><feFlood flood-color="#000000" result="black"></feFlood><feMorphology operator="dilate" radius="2" in="SourceGraphic" result="erode"></feMorphology><feGaussianBlur in="erode" stdDeviation="4" result="blur"></feGaussianBlur><feOffset in="blur" dx="2" dy="2" result="offset"></feOffset><feComposite operator="atop" in="offset" in2="black" result="merge"></feComposite><feComposite operator="in" in="merge" in2="SourceGraphic" result="inner-shadow"></feComposite></filter></defs><g filter="url(#editing-hole)"><g transform="translate(153.7728854417801, 99)"><path d="M26.05-29.57L26.05-29.57L26.05-29.57Q27.01-31.49 27.01-33.28L27.01-33.28L27.01-33.28Q27.01-35.07 26.82-36.06L26.82-36.06L26.82-36.06Q26.62-37.06 26.18-37.82L26.18-37.82L26.18-37.82Q25.22-39.49 23.30-39.49L23.30-39.49L23.30-39.49Q20.93-39.49 19.01-37.76L19.01-37.76L19.01-37.76Q16.96-35.97 16.96-33.15L16.96-33.15L16.96-33.15Q16.96-31.36 18.21-29.98L18.21-29.98L18.21-29.98Q19.46-28.61 21.38-27.33L21.38-27.33L21.38-27.33Q23.30-26.05 25.47-24.77L25.47-24.77L25.47-24.77Q27.65-23.49 29.57-21.95L29.57-21.95L29.57-21.95Q33.98-18.43 33.98-13.70L33.98-13.70L33.98-13.70Q33.98-10.50 32.29-7.78L32.29-7.78L32.29-7.78Q30.59-5.06 27.78-3.07L27.78-3.07L27.78-3.07Q21.63 1.28 13.50 1.28L13.50 1.28L13.50 1.28Q6.91 1.28 3.52-0.86L3.52-0.86L3.52-0.86Q0.13-3.01 0.13-6.27L0.13-6.27L0.13-6.27Q0.13-12.10 4.67-13.57L4.67-13.57L4.67-13.57Q5.95-14.02 7.90-14.02L7.90-14.02L7.90-14.02Q9.86-14.02 12.10-13.18L12.10-13.18L12.10-13.18Q11.07-10.56 11.07-8.19L11.07-8.19L11.07-8.19Q11.07-3.07 14.72-3.07L14.72-3.07L14.72-3.07Q17.09-3.07 19.04-4.80L19.04-4.80L19.04-4.80Q20.99-6.53 20.99-8.48L20.99-8.48L20.99-8.48Q20.99-10.43 19.74-11.84L19.74-11.84L19.74-11.84Q18.50-13.25 16.64-14.37L16.64-14.37L16.64-14.37Q14.78-15.49 12.64-16.58L12.64-16.58L12.64-16.58Q10.50-17.66 8.64-19.20L8.64-19.20L8.64-19.20Q4.29-22.72 4.29-28.35L4.29-28.35L4.29-28.35Q4.29-32 6.08-34.85L6.08-34.85L6.08-34.85Q7.87-37.70 10.75-39.62L10.75-39.62L10.75-39.62Q16.51-43.52 23.58-43.52L23.58-43.52L23.58-43.52Q30.66-43.52 34.08-41.41L34.08-41.41L34.08-41.41Q37.50-39.30 37.50-35.71L37.50-35.71L37.50-35.71Q37.50-32.58 35.07-30.59L35.07-30.59L35.07-30.59Q32.96-28.93 30.40-28.93L30.40-28.93L30.40-28.93Q27.84-28.93 26.05-29.57ZM54.14-3.52L54.14-3.52L54.14-3.52Q52.16 1.28 45.82 1.28L45.82 1.28L45.82 1.28Q42.62 1.28 40.58-0.96L40.58-0.96L40.58-0.96Q38.91-2.82 38.91-4.93L38.91-4.93L38.91-4.93Q38.91-9.73 41.15-20.22L41.15-20.22L45.82-44.80L58.82-46.08L52.61-13.70L52.61-13.70Q51.52-8.96 51.52-7.30L51.52-7.30L51.52-7.30Q51.52-3.65 54.14-3.52ZM74.94-3.52L74.94-3.52L74.94-3.52Q72.96 1.28 66.62 1.28L66.62 1.28L66.62 1.28Q63.36 1.28 61.31-0.96L61.31-0.96L61.31-0.96Q59.58-2.94 59.58-4.93L59.58-4.93L59.58-4.93Q59.58-10.11 61.95-20.22L61.95-20.22L64.32-32.64L77.31-33.92L73.41-13.70L73.41-13.70Q72.32-8.96 72.32-7.30L72.32-7.30L72.32-7.30Q72.32-3.65 74.94-3.52ZM65.47-41.54L65.47-41.54L65.47-41.54Q65.47-44.03 67.55-45.38L67.55-45.38L67.55-45.38Q69.63-46.72 72.64-46.72L72.64-46.72L72.64-46.72Q75.65-46.72 77.47-45.38L77.47-45.38L77.47-45.38Q79.30-44.03 79.30-41.54L79.30-41.54L79.30-41.54Q79.30-39.04 77.28-37.76L77.28-37.76L77.28-37.76Q75.26-36.48 72.26-36.48L72.26-36.48L72.26-36.48Q69.25-36.48 67.36-37.76L67.36-37.76L67.36-37.76Q65.47-39.04 65.47-41.54ZM111.81-26.62L111.81-26.62L111.81-26.62Q111.81-23.94 109.57-22.27L109.57-22.27L109.57-22.27Q107.33-20.61 103.68-20.61L103.68-20.61L103.68-20.61Q102.14-20.61 101.25-21.06L101.25-21.06L101.25-21.06Q101.95-22.72 102.18-24.80L102.18-24.80L102.18-24.80Q102.40-26.88 102.40-27.46L102.40-27.46L102.40-27.46Q102.40-30.14 100.54-30.14L100.54-30.14L100.54-30.14Q99.26-30.14 97.82-28.54L97.82-28.54L97.82-28.54Q96.38-26.94 95.17-24.45L95.17-24.45L95.17-24.45Q92.48-18.69 92.48-12.86L92.48-12.86L92.48-12.86Q92.48-9.66 93.70-8.22L93.70-8.22L93.70-8.22Q94.91-6.78 97.60-6.78L97.60-6.78L97.60-6.78Q101.31-6.78 104.26-9.86L104.26-9.86L104.26-9.86Q105.09-10.82 105.54-11.90L105.54-11.90L105.54-11.90Q107.97-10.62 107.97-7.10L107.97-7.10L107.97-7.10Q107.97-3.52 104-1.15L104-1.15L104-1.15Q99.90 1.28 93.38 1.28L93.38 1.28L93.38 1.28Q80.38 1.28 80.38-12.48L80.38-12.48L80.38-12.48Q80.38-22.53 86.08-28.29L86.08-28.29L86.08-28.29Q91.58-33.92 101.70-33.92L101.70-33.92L101.70-33.92Q111.81-33.92 111.81-26.62ZM139.46-10.82L139.46-10.82L139.46-10.82Q141.06-9.73 141.06-7.33L141.06-7.33L141.06-7.33Q141.06-4.93 139.84-3.39L139.84-3.39L139.84-3.39Q138.62-1.86 136.64-0.83L136.64-0.83L136.64-0.83Q132.54 1.28 128.13 1.28L128.13 1.28L128.13 1.28Q123.71 1.28 121.12 0.32L121.12 0.32L121.12 0.32Q118.53-0.64 116.80-2.43L116.80-2.43L116.80-2.43Q113.41-5.82 113.41-12.03L113.41-12.03L113.41-12.03Q113.41-21.70 118.66-27.58L118.66-27.58L118.66-27.58Q124.29-33.92 134.08-33.92L134.08-33.92L134.08-33.92Q140.16-33.92 143.17-31.36L143.17-31.36L143.17-31.36Q145.41-29.44 145.41-26.30L145.41-26.30L145.41-26.30Q145.41-15.04 125.95-15.04L125.95-15.04L125.95-15.04Q125.70-13.38 125.70-11.97L125.70-11.97L125.70-11.97Q125.70-9.02 127.01-7.90L127.01-7.90L127.01-7.90Q128.32-6.78 130.75-6.78L130.75-6.78L130.75-6.78Q133.18-6.78 135.78-7.90L135.78-7.90L135.78-7.90Q138.37-9.02 139.46-10.82ZM126.40-17.79L126.40-17.79L126.40-17.79Q130.94-17.79 133.57-20.61L133.57-20.61L133.57-20.61Q136.19-23.30 136.19-27.58L136.19-27.58L136.19-27.58Q136.19-29.06 135.65-29.86L135.65-29.86L135.65-29.86Q135.10-30.66 134.02-30.66L134.02-30.66L134.02-30.66Q132.93-30.66 132-30.24L132-30.24L132-30.24Q131.07-29.82 130.11-28.42L130.11-28.42L130.11-28.42Q127.74-25.22 126.40-17.79ZM160.83 0L146.88 0L155.01-42.24L169.09-42.24L160.83 0ZM171.52-6.40L171.52-6.40L171.52-6.40Q171.52-8.13 172.42-12.48L172.42-12.48L175.81-29.76L172.03-29.76L172.29-31.68L172.29-31.68Q179.97-33.98 187.39-39.62L187.39-39.62L190.46-39.62L188.93-32.64L193.92-32.64L193.34-29.76L188.42-29.76L185.15-12.48L185.15-12.48Q184.32-8.51 184.32-7.17L184.32-7.17L184.32-7.17Q184.32-4.10 187.01-3.46L187.01-3.46L187.01-3.46Q186.37-1.28 184.06 0L184.06 0L184.06 0Q181.76 1.28 178.50 1.28L178.50 1.28L178.50 1.28Q175.23 1.28 173.38-0.77L173.38-0.77L173.38-0.77Q171.52-2.82 171.52-6.40Z" fill="#ffffff"></path></g></g><style>text {
  font-size: 64px;
  font-family: Arial Black;
  dominant-baseline: central;
  text-anchor: middle;
}</style></svg>