<svg width="261.6986328125px" height="158px" xmlns="http://www.w3.org/2000/svg" viewBox="119.15068359374999 -4 261.6986328125 158" style="background: rgba(0, 0, 0, 0);" preserveAspectRatio="xMidYMid"><defs><linearGradient id="editing-gradow-gradient" x1="0" x2="1" y1="0.5" y2="0.5" gradientUnits="objectBoundingBox"><stop offset="0" stop-color="#000000"></stop><stop offset="1" stop-color="#000000"></stop></linearGradient><filter id="editing-gradow-filter" x="-100%" y="-100%" width="300%" height="300%"><feFlood flood-color="#ffffff" result="flood"></feFlood><feComposite operator="in" in2="SourceAlpha" in="flood" result="shadow"></feComposite><feOffset dx="-4" dy="-4" in="SourceGraphic" result="offset-1"></feOffset><feOffset dx="4" dy="4" in="shadow" result="offset-2"></feOffset><feMerge><feMergeNode in="offset-2"></feMergeNode><feMergeNode in="offset-1"></feMergeNode></feMerge></filter></defs><g filter="url(#editing-gradow-filter)"><g transform="translate(162.7802096605301, 102.26000022888184)"><path d="M29.44-9.79L29.44-9.79L29.44-9.79Q29.44-12.86 28-15.04L28-15.04L28-15.04Q26.56-17.22 24.29-18.43L24.29-18.43L24.29-18.43Q22.02-19.65 19.26-20.61L19.26-20.61L19.26-20.61Q16.51-21.57 13.76-22.56L13.76-22.56L13.76-22.56Q11.01-23.55 8.74-24.93L8.74-24.93L8.74-24.93Q6.46-26.30 5.02-28.74L5.02-28.74L5.02-28.74Q3.58-31.17 3.58-34.62L3.58-34.62L3.58-34.62Q3.58-40.58 7.97-43.97L7.97-43.97L7.97-43.97Q12.35-47.36 19.23-47.36L19.23-47.36L19.23-47.36Q26.11-47.36 30.21-44.22L30.21-44.22L30.21-44.22Q34.30-41.09 34.30-37.38L34.30-37.38L34.30-37.38Q34.30-34.82 33.31-33.57L33.31-33.57L33.31-33.57Q32.32-32.32 30.98-32.32L30.98-32.32L30.98-32.32Q28.48-32.32 27.78-33.28L27.78-33.28L27.58-33.60L27.58-33.60Q28.22-34.43 28.22-36.80L28.22-36.80L28.22-36.80Q28.22-40.45 25.15-42.53L25.15-42.53L25.15-42.53Q22.08-44.61 18.02-44.61L18.02-44.61L18.02-44.61Q13.95-44.61 11.58-42.43L11.58-42.43L11.58-42.43Q9.22-40.26 9.22-37.12L9.22-37.12L9.22-37.12Q9.22-33.98 10.66-31.90L10.66-31.90L10.66-31.90Q12.10-29.82 14.40-28.67L14.40-28.67L14.40-28.67Q16.70-27.52 19.49-26.62L19.49-26.62L19.49-26.62Q22.27-25.73 25.06-24.67L25.06-24.67L25.06-24.67Q27.84-23.62 30.14-22.11L30.14-22.11L30.14-22.11Q32.45-20.61 33.89-17.86L33.89-17.86L33.89-17.86Q35.33-15.10 35.33-11.20L35.33-11.20L35.33-11.20Q35.33-4.35 30.46-0.70L30.46-0.70L30.46-0.70Q25.60 2.94 18.27 2.94L18.27 2.94L18.27 2.94Q10.94 2.94 5.54-0.80L5.54-0.80L5.54-0.80Q0.13-4.54 0.13-10.18L0.13-10.18L0.13-10.18Q0.13-12.80 1.15-14.30L1.15-14.30L1.15-14.30Q2.18-15.81 3.58-15.81L3.58-15.81L3.58-15.81Q6.08-15.81 6.78-14.98L6.78-14.98L6.98-14.66L6.98-14.66Q6.40-13.06 6.40-10.75L6.40-10.75L6.40-10.75Q6.40-6.40 9.95-3.14L9.95-3.14L9.95-3.14Q13.50 0.13 19.26 0.13L19.26 0.13L19.26 0.13Q23.42 0.13 26.43-2.78L26.43-2.78L26.43-2.78Q29.44-5.70 29.44-9.79ZM56.77-15.17L56.77-15.17L56.77-15.17Q57.92-15.17 57.92-11.78L57.92-11.78L57.92-11.78Q57.92-6.85 55.23-3.33L55.23-3.33L55.23-3.33Q52.54 0.19 48.38 0.19L48.38 0.19L48.38 0.19Q43.20 0.19 40.64-2.88L40.64-2.88L40.64-2.88Q38.08-5.95 38.08-11.58L38.08-11.58L38.08-35.65L38.08-35.65Q38.08-43.90 39.81-47.74L39.81-47.74L39.81-47.74Q41.54-51.58 45.89-51.58L45.89-51.58L45.89-51.58Q52.22-51.58 52.22-43.01L52.22-43.01L52.22-43.01Q52.22-36.54 49.70-32.64L49.70-32.64L49.70-32.64Q47.17-28.74 43.90-26.82L43.90-26.82L43.90-9.66L43.90-9.66Q43.90-6.02 45.31-4.16L45.31-4.16L45.31-4.16Q46.72-2.30 49.15-2.30L49.15-2.30L49.15-2.30Q51.58-2.30 53.70-5.25L53.70-5.25L53.70-5.25Q55.81-8.19 55.81-14.78L55.81-14.78L55.81-14.78Q55.94-15.17 56.77-15.17ZM49.47-42.94L49.47-42.94L49.47-42.94Q49.47-49.09 46.40-49.09L46.40-49.09L46.40-49.09Q45.63-49.09 45.22-48.58L45.22-48.58L45.22-48.58Q44.80-48.06 44.48-46.02L44.48-46.02L44.48-46.02Q43.90-42.88 43.90-29.50L43.90-29.50L43.90-29.50Q49.47-33.54 49.47-42.94ZM56.26-35.20L56.26-35.20L56.26-35.20Q55.17-36.29 55.17-37.89L55.17-37.89L55.17-37.89Q55.17-39.49 56.26-40.61L56.26-40.61L56.26-40.61Q57.34-41.73 58.94-41.73L58.94-41.73L58.94-41.73Q60.54-41.73 61.66-40.61L61.66-40.61L61.66-40.61Q62.78-39.49 62.78-37.89L62.78-37.89L62.78-37.89Q62.78-36.29 61.66-35.20L61.66-35.20L61.66-35.20Q60.54-34.11 58.94-34.11L58.94-34.11L58.94-34.11Q57.34-34.11 56.26-35.20ZM56-25.02L56-25.02Q56-26.94 56.96-27.94L56.96-27.94L56.96-27.94Q57.92-28.93 59.39-28.93L59.39-28.93L59.39-28.93Q60.86-28.93 61.76-28.03L61.76-28.03L61.76-9.66L61.76-9.66Q61.76-6.02 63.17-4.16L63.17-4.16L63.17-4.16Q64.58-2.30 67.01-2.30L67.01-2.30L67.01-2.30Q69.44-2.30 71.55-5.25L71.55-5.25L71.55-5.25Q73.66-8.19 73.66-14.78L73.66-14.78L73.66-14.78Q73.79-15.17 74.62-15.17L74.62-15.17L74.62-15.17Q75.78-15.17 75.78-11.78L75.78-11.78L75.78-11.78Q75.78-6.85 73.09-3.33L73.09-3.33L73.09-3.33Q70.40 0.19 66.24 0.19L66.24 0.19L66.24 0.19Q61.06 0.19 58.53-2.88L58.53-2.88L58.53-2.88Q56-5.95 56-11.58L56-11.58L56-25.02ZM100.61-13.12L100.61-13.12L100.61-13.12Q101.95-13.12 101.95-11.26L101.95-11.26L101.95-11.26Q101.95-9.41 101.18-7.55L101.18-7.55L101.18-7.55Q100.42-5.70 98.98-3.90L98.98-3.90L98.98-3.90Q97.54-2.11 94.94-0.96L94.94-0.96L94.94-0.96Q92.35 0.19 89.09 0.19L89.09 0.19L89.09 0.19Q81.92 0.19 77.86-3.42L77.86-3.42L77.86-3.42Q73.79-7.04 73.79-14.05L73.79-14.05L73.79-14.05Q73.79-21.06 77.38-24.99L77.38-24.99L77.38-24.99Q80.96-28.93 86.53-28.93L86.53-28.93L86.53-28.93Q90.56-28.93 92.42-26.78L92.42-26.78L92.42-26.78Q94.27-24.64 94.27-21.70L94.27-21.70L94.27-21.70Q94.27-20.10 93.31-19.14L93.31-19.14L93.31-19.14Q92.35-18.18 91.46-18.18L91.46-18.18L91.46-18.18Q89.79-18.18 89.28-18.94L89.28-18.94L89.28-18.94Q89.66-19.90 89.66-21.70L89.66-21.70L89.66-21.70Q89.66-23.49 88.45-24.96L88.45-24.96L88.45-24.96Q87.23-26.43 85.50-26.43L85.50-26.43L85.50-26.43Q82.50-26.43 81.18-23.49L81.18-23.49L81.18-23.49Q79.87-20.54 79.87-14.24L79.87-14.24L79.87-14.24Q79.87-7.94 82.34-5.12L82.34-5.12L82.34-5.12Q84.80-2.30 89.22-2.30L89.22-2.30L89.22-2.30Q93.63-2.30 96.64-5.02L96.64-5.02L96.64-5.02Q99.65-7.74 99.65-12.74L99.65-12.74L99.65-12.74Q99.71-13.12 100.61-13.12ZM126.59-14.40L126.59-14.40L126.59-14.40Q127.94-14.40 127.94-12.35L127.94-12.35L127.94-12.35Q127.94-7.62 124.64-3.71L124.64-3.71L124.64-3.71Q121.34 0.19 114.62 0.19L114.62 0.19L114.62 0.19Q107.90 0.19 103.84-3.42L103.84-3.42L103.84-3.42Q99.78-7.04 99.78-14.05L99.78-14.05L99.78-14.05Q99.78-21.06 103.36-24.99L103.36-24.99L103.36-24.99Q106.94-28.93 112.51-28.93L112.51-28.93L112.51-28.93Q116.54-28.93 118.40-26.78L118.40-26.78L118.40-26.78Q120.26-24.64 120.26-21.70L120.26-21.70L120.26-21.70Q120.26-16.90 116.26-13.73L116.26-13.73L116.26-13.73Q112.26-10.56 106.05-10.56L106.05-10.56L106.05-10.56Q106.62-6.46 109.02-4.38L109.02-4.38L109.02-4.38Q111.42-2.30 115.36-2.30L115.36-2.30L115.36-2.30Q119.30-2.30 122.46-5.28L122.46-5.28L122.46-5.28Q125.63-8.26 125.63-14.02L125.63-14.02L125.63-14.02Q125.70-14.40 126.59-14.40ZM105.86-13.50L105.86-13.50L105.86-12.93L105.86-12.93Q109.82-13.44 112.74-15.42L112.74-15.42L112.74-15.42Q115.65-17.41 115.65-21.31L115.65-21.31L115.65-21.31Q115.65-23.81 114.56-25.12L114.56-25.12L114.56-25.12Q113.47-26.43 111.49-26.43L111.49-26.43L111.49-26.43Q108.48-26.43 107.17-23.49L107.17-23.49L107.17-23.49Q105.86-20.54 105.86-13.50ZM148.64-2.78L148.64-2.78L148.64-2.78Q149.25-2.24 149.25-1.41L149.25-1.41L149.25-1.41Q149.25-0.58 148.67 0L148.67 0L131.46 0L131.46 0Q129.15 0 129.15-1.86L129.15-1.86L129.15-1.86Q129.15-2.69 129.73-3.26L129.73-3.26L136.64-3.33L136.64-41.47L131.46-41.47L131.46-41.47Q129.15-41.47 129.15-43.33L129.15-43.33L129.15-43.33Q129.15-44.10 129.73-44.80L129.73-44.80L146.94-44.80L146.94-44.80Q148.03-44.80 148.64-44.26L148.64-44.26L148.64-44.26Q149.25-43.71 149.25-42.88L149.25-42.88L149.25-42.88Q149.25-42.05 148.67-41.47L148.67-41.47L142.40-41.47L142.40-3.33L146.94-3.33L146.94-3.33Q148.03-3.33 148.64-2.78ZM154.82-34.50L154.82-34.50Q154.82-36.42 155.78-37.41L155.78-37.41L155.78-37.41Q156.74-38.40 158.21-38.40L158.21-38.40L158.21-38.40Q159.68-38.40 160.58-37.50L160.58-37.50L160.58-28.03L169.34-28.03L169.34-28.03Q170.69-28.03 171.10-27.52L171.10-27.52L171.10-27.52Q171.52-27.01 171.52-25.79L171.52-25.79L160.58-25.79L160.58-9.66L160.58-9.66Q160.58-6.14 162.59-4.22L162.59-4.22L162.59-4.22Q164.61-2.30 167.23-2.30L167.23-2.30L167.23-2.30Q171.20-2.30 173.06-5.25L173.06-5.25L173.06-5.25Q174.91-8.19 174.91-14.78L174.91-14.78L174.91-14.78Q175.04-15.17 175.87-15.17L175.87-15.17L175.87-15.17Q177.02-15.17 177.02-11.78L177.02-11.78L177.02-11.78Q177.02-6.59 174.43-3.20L174.43-3.20L174.43-3.20Q171.84 0.19 166.46 0.19L166.46 0.19L166.46 0.19Q161.09 0.19 157.95-2.62L157.95-2.62L157.95-2.62Q154.82-5.44 154.82-11.01L154.82-11.01L154.82-34.50Z" fill="url(#editing-gradow-gradient)"></path></g></g><style>text {
  font-size: 64px;
  font-family: Arial Black;
  dominant-baseline: central;
  text-anchor: middle;
}</style></svg>